<svg width="34" height="36" viewBox="0 0 34 36" fill="none" xmlns="http://www.w3.org/2000/svg">
<path id="Vector" d="M29.9929 29.6076C30.0004 29.5955 30.0118 29.5835 30.0194 29.5714C32.5049 26.4415 34 22.4076 34 18C34 13.5924 32.5049 9.55848 30.0232 6.42857C30.0156 6.41652 30.0042 6.40848 29.9967 6.39643C29.9549 6.3442 29.917 6.29598 29.8752 6.24777C29.86 6.22768 29.8449 6.21161 29.8297 6.19152L29.6741 6.00268L29.6703 5.99866C29.6134 5.93036 29.5527 5.86205 29.4958 5.79375L29.492 5.78973C29.3705 5.65313 29.2491 5.51652 29.1239 5.38393L29.1201 5.37991L28.9379 5.18705L28.9266 5.175C28.8696 5.11473 28.8127 5.05848 28.7558 5.00223C28.7368 4.98214 28.7179 4.96205 28.6951 4.94196C28.6571 4.90179 28.6192 4.86562 28.5813 4.82946C28.5699 4.81741 28.5547 4.80536 28.5433 4.78929C25.5152 1.81607 21.4587 0 17 0C12.5413 0 8.48482 1.81607 5.4529 4.78929C5.44152 4.80134 5.42634 4.81339 5.41496 4.82946C5.37701 4.86562 5.33906 4.9058 5.30112 4.94598C5.28214 4.96607 5.26317 4.98616 5.2404 5.00625C5.18348 5.0625 5.12656 5.12277 5.06964 5.17902L5.05826 5.19107L4.87612 5.38393L4.87232 5.38795C4.7471 5.52054 4.62567 5.65714 4.50424 5.79375L4.50045 5.79777C4.43973 5.86607 4.38281 5.93437 4.32589 6.00268L4.3221 6.0067C4.26897 6.06696 4.21585 6.13125 4.16652 6.19554C4.15134 6.21562 4.13616 6.2317 4.12098 6.25179C4.07924 6.3 4.04129 6.35223 3.99955 6.40045C3.99196 6.4125 3.98058 6.42054 3.97299 6.43259C1.49509 9.55848 0 13.5924 0 18C0 22.4076 1.49509 26.4415 3.97679 29.5714C3.98438 29.5835 3.99576 29.5955 4.00335 29.6076L4.12098 29.7562C4.13616 29.7763 4.15134 29.7924 4.16652 29.8125L4.3221 30.0013C4.3221 30.0054 4.32589 30.0054 4.32589 30.0094C4.38281 30.0777 4.43973 30.146 4.50045 30.2103L4.50424 30.2143C4.62567 30.3509 4.7471 30.4875 4.86853 30.6201L4.87232 30.6241C4.93304 30.6884 4.98996 30.7527 5.05067 30.8129L5.06205 30.825C5.18728 30.9576 5.31629 31.0862 5.44531 31.2107C8.48482 34.1839 12.5413 36 17 36C21.4587 36 25.5152 34.1839 28.5471 31.2107C28.6764 31.0853 28.8029 30.9566 28.9266 30.825L28.9379 30.8129C28.9987 30.7487 29.0594 30.6884 29.1163 30.6241L29.1201 30.6201C29.2453 30.4875 29.3667 30.3509 29.4844 30.2143L29.4882 30.2103C29.5451 30.142 29.6058 30.0777 29.6627 30.0094C29.6627 30.0054 29.6665 30.0054 29.6665 30.0013C29.7196 29.9411 29.7728 29.8768 29.8221 29.8125C29.8373 29.7924 29.8525 29.7763 29.8676 29.7562C29.9105 29.7078 29.9523 29.6582 29.9929 29.6076ZM30.1484 23.8781C29.6248 25.1879 28.9342 26.4013 28.0917 27.5022C27.143 26.6341 26.1057 25.8807 24.9991 25.2562C25.4393 23.3719 25.7125 21.3027 25.7846 19.125H31.2299C31.1161 20.7683 30.7518 22.3634 30.1484 23.8781ZM31.2299 16.875H25.7846C25.7125 14.6973 25.4393 12.6281 24.9991 10.7437C26.1109 10.117 27.1469 9.36161 28.0917 8.49777C29.9229 10.8843 31.0183 13.8083 31.2299 16.875ZM22.5516 4.07812C24.058 4.75313 25.4279 5.68527 26.6346 6.85848C25.9336 7.49046 25.1791 8.05266 24.3806 8.53795C23.7848 6.72991 23.0221 5.15893 22.1342 3.90134C22.2746 3.95759 22.415 4.01786 22.5516 4.07812ZM19.1136 32.2272C18.7645 32.5165 18.4154 32.7375 18.0625 32.8862V25.433C19.5682 25.5443 21.0489 25.8993 22.4529 26.4857C22.1379 27.4741 21.7737 28.3862 21.3525 29.2098C20.6922 30.5116 19.9181 31.5522 19.1136 32.2272ZM21.3525 6.79018C21.7699 7.61786 22.1379 8.52991 22.4529 9.51429C21.0489 10.1007 19.5682 10.4557 18.0625 10.567V3.11786C18.4116 3.26652 18.7645 3.48348 19.1136 3.77679C19.9181 4.44777 20.6922 5.48839 21.3525 6.79018ZM18.0625 23.179V19.125H23.6596C23.5989 20.9009 23.3902 22.6246 23.0411 24.2598L23.0297 24.308C21.4372 23.6686 19.7625 23.288 18.0625 23.179ZM18.0625 16.875V12.821C19.8004 12.7085 21.4701 12.3188 23.0297 11.692L23.0411 11.7402C23.3902 13.3754 23.5989 15.0951 23.6596 16.875H18.0625ZM15.9375 19.125V23.179C14.1996 23.2915 12.5299 23.6812 10.9703 24.308L10.9589 24.2598C10.6098 22.6246 10.4011 20.9049 10.3404 19.125H15.9375ZM10.3404 16.875C10.4011 15.0991 10.6098 13.3754 10.9589 11.7402L10.9703 11.692C12.5299 12.3188 14.1958 12.7085 15.9375 12.821V16.875H10.3404ZM15.9375 25.433V32.8821C15.5884 32.7335 15.2355 32.5165 14.8864 32.2232C14.0819 31.5522 13.304 30.5076 12.6438 29.2058C12.2263 28.3781 11.8583 27.4661 11.5433 26.4817C12.9549 25.8951 14.4234 25.5455 15.9375 25.433ZM15.9375 10.567C14.4318 10.4557 12.9511 10.1007 11.5471 9.51429C11.8621 8.52589 12.2263 7.61384 12.6475 6.79018C13.3078 5.48839 14.0819 4.44375 14.8902 3.77277C15.2393 3.48348 15.5884 3.2625 15.9413 3.11384V10.567H15.9375ZM11.4484 4.07812C11.5888 4.01786 11.7254 3.95759 11.8658 3.90134C10.9779 5.15893 10.2152 6.72991 9.61942 8.53795C8.82255 8.0558 8.06741 7.4933 7.3654 6.85848C8.5721 5.68527 9.94196 4.75313 11.4484 4.07812ZM3.85156 12.1219C4.37522 10.8121 5.06585 9.59866 5.90826 8.49777C6.85312 9.36161 7.88906 10.117 9.00089 10.7437C8.56071 12.6281 8.2875 14.6973 8.2154 16.875H2.77009C2.88393 15.2317 3.24821 13.6366 3.85156 12.1219ZM2.77009 19.125H8.2154C8.2875 21.3027 8.56071 23.3719 9.00089 25.2562C7.8943 25.8807 6.857 26.6341 5.90826 27.5022C4.07708 25.1157 2.98171 22.1917 2.77009 19.125ZM11.4484 31.9219C9.94196 31.2469 8.5721 30.3147 7.3654 29.1415C8.06741 28.5067 8.82255 27.9482 9.61942 27.4621C10.2152 29.2701 10.9779 30.8411 11.8658 32.0987C11.7254 32.0424 11.585 31.9821 11.4484 31.9219ZM22.5516 31.9219C22.4112 31.9821 22.2746 32.0424 22.1342 32.0987C23.0221 30.8411 23.7848 29.2701 24.3806 27.4621C25.1775 27.9442 25.9326 28.5067 26.6346 29.1415C25.4346 30.3098 24.0534 31.2504 22.5516 31.9219Z" fill="black"/>
</svg>
